<svg width="26" height="26" viewBox="0 0 26 26" fill="none" xmlns="http://www.w3.org/2000/svg">
<path fill-rule="evenodd" clip-rule="evenodd" d="M13 0C5.82075 0 0 5.82075 0 13C0 20.1792 5.82075 26 13 26C20.1792 26 26 20.1792 26 13C26 5.82075 20.1792 0 13 0ZM13 3.25C17.2307 3.25 20.8041 5.97513 22.1536 9.75H3.84637C5.19594 5.97513 8.76931 3.25 13 3.25ZM11.375 13C11.375 13.8978 12.1022 14.625 13 14.625C13.8978 14.625 14.625 13.8978 14.625 13C14.625 12.1022 13.8978 11.375 13 11.375C12.1022 11.375 11.375 12.1022 11.375 13ZM3.25 13C7.69031 13 11.2864 17.2786 11.362 22.5851C6.7665 21.7977 3.25 17.8149 3.25 13ZM14.638 22.5851C14.7136 17.2786 18.3097 13 22.75 13C22.75 17.8149 19.2335 21.7977 14.638 22.5851Z" fill="white"/>
</svg>
